<?xml version="1.0" encoding="UTF-8"?>
<svg xmlns="http://www.w3.org/2000/svg" xmlns:xlink="http://www.w3.org/1999/xlink" width="32px" height="32px" viewBox="0 0 32 32" version="1.1">
<defs>
<clipPath id="clip1">
  <path d="M 0 18.703125 L 13.070312 18.703125 L 13.070312 32 L 0 32 Z M 0 18.703125 "/>
</clipPath>
<clipPath id="clip2">
  <path d="M 21.183594 13.296875 L 32 13.296875 L 32 15.324219 L 21.183594 15.324219 Z M 21.183594 13.296875 "/>
</clipPath>
</defs>
<g id="surface1">
<g clip-path="url(#clip1)" clip-rule="nonzero">
<path style=" stroke:none;fill-rule:nonzero;fill:rgb(0%,100%,0%);fill-opacity:1;" d="M 0 30.195312 L 8.5625 21.632812 L 6.761719 19.832031 L 13.070312 18.929688 L 12.167969 25.238281 L 10.367188 23.4375 L 1.804688 32 Z M 0 30.195312 "/>
</g>
<g clip-path="url(#clip2)" clip-rule="nonzero">
<path style="fill:none;stroke-width:8;stroke-linecap:round;stroke-linejoin:round;stroke:rgb(100%,60.000002%,0%);stroke-opacity:1;stroke-miterlimit:10;" d="M 140.005922 120.000846 L 179.995443 120.000846 " transform="matrix(0.225352,0,0,-0.225352,-9.464677,41.464306)"/>
</g>
<path style="fill:none;stroke-width:8;stroke-linecap:round;stroke-linejoin:round;stroke:rgb(100%,60.000002%,0%);stroke-opacity:1;stroke-miterlimit:10;" d="M 99.999066 120.000846 L 59.992211 120.000846 " transform="matrix(0.225352,0,0,-0.225352,-9.464677,41.464306)"/>
<path style="fill:none;stroke-width:8;stroke-linecap:round;stroke-linejoin:round;stroke:rgb(100%,60.000002%,0%);stroke-opacity:1;stroke-miterlimit:10;" d="M 120.002494 140.004274 L 120.002494 179.993795 " transform="matrix(0.225352,0,0,-0.225352,-9.464677,41.464306)"/>
<path style="fill:none;stroke-width:8;stroke-linecap:round;stroke-linejoin:round;stroke:rgb(100%,60.000002%,0%);stroke-opacity:1;stroke-miterlimit:10;" d="M 120.002494 99.997418 L 120.002494 60.007897 " transform="matrix(0.225352,0,0,-0.225352,-9.464677,41.464306)"/>
</g>
</svg>
