<?xml version="1.0" encoding="UTF-8"?>
<svg xmlns="http://www.w3.org/2000/svg" xmlns:xlink="http://www.w3.org/1999/xlink" width="32px" height="32px" viewBox="0 0 32 32" version="1.1">
<defs>
<clipPath id="clip1">
  <path d="M 0 10.910156 L 21.089844 10.910156 L 21.089844 32 L 0 32 Z M 0 10.910156 "/>
</clipPath>
<clipPath id="clip2">
  <path d="M 24.726562 0 L 32 0 L 32 7.273438 L 24.726562 7.273438 Z M 24.726562 0 "/>
</clipPath>
</defs>
<g id="surface1">
<g clip-path="url(#clip1)" clip-rule="nonzero">
<path style=" stroke:none;fill-rule:nonzero;fill:rgb(0%,100%,0%);fill-opacity:1;" d="M 0 29.089844 L 13.816406 15.269531 L 10.910156 12.363281 L 21.089844 10.910156 L 19.636719 21.089844 L 16.726562 18.179688 L 2.910156 32 Z M 0 29.089844 "/>
</g>
<g clip-path="url(#clip2)" clip-rule="nonzero">
<path style=" stroke:none;fill-rule:nonzero;fill:rgb(100%,60.000002%,0%);fill-opacity:1;" d="M 32 3.636719 C 32 2.671875 31.617188 1.746094 30.933594 1.0625 C 30.253906 0.382812 29.328125 0 28.363281 0 C 27.398438 0 26.476562 0.382812 25.792969 1.0625 C 25.109375 1.746094 24.726562 2.671875 24.726562 3.636719 C 24.726562 4.601562 25.109375 5.527344 25.792969 6.207031 C 26.476562 6.890625 27.398438 7.273438 28.363281 7.273438 C 29.328125 7.273438 30.253906 6.890625 30.933594 6.207031 C 31.617188 5.527344 32 4.601562 32 3.636719 Z M 32 3.636719 "/>
</g>
</g>
</svg>
