<?xml version="1.0" encoding="UTF-8"?>
<svg xmlns="http://www.w3.org/2000/svg" xmlns:xlink="http://www.w3.org/1999/xlink" width="32px" height="32px" viewBox="0 0 32 32" version="1.1">
<defs>
<clipPath id="clip1">
  <path d="M 13.1875 13.1875 L 31.839844 13.1875 L 31.839844 31.839844 L 13.1875 31.839844 Z M 13.1875 13.1875 "/>
</clipPath>
</defs>
<g id="surface1">
<g clip-path="url(#clip1)" clip-rule="nonzero">
<path style=" stroke:none;fill-rule:nonzero;fill:rgb(0%,100%,0%);fill-opacity:1;" d="M 31.839844 29.277344 L 19.679688 17.121094 L 22.238281 14.558594 L 13.28125 13.277344 L 14.558594 22.238281 L 17.121094 19.679688 L 29.28125 31.839844 Z M 31.839844 29.277344 "/>
</g>
<path style="fill:none;stroke-width:8;stroke-linecap:round;stroke-linejoin:round;stroke:rgb(100%,60.000002%,0%);stroke-opacity:1;stroke-miterlimit:10;" d="M 137.500366 120.001818 C 137.500366 124.640493 135.657103 129.096062 132.37341 132.379755 C 129.089716 135.651242 124.646354 137.506711 119.995472 137.506711 C 115.356798 137.506711 110.913436 135.651242 107.629742 132.379755 C 104.346049 129.096062 102.502786 124.640493 102.502786 120.001818 C 102.502786 115.363143 104.346049 110.907574 107.629742 107.623881 C 110.913436 104.340187 115.356798 102.496924 119.995472 102.496924 C 124.646354 102.496924 129.089716 104.340187 132.37341 107.623881 C 135.657103 110.907574 137.500366 115.363143 137.500366 120.001818 Z M 137.500366 120.001818 " transform="matrix(0.32,0,0,-0.32,-31.519621,45.279465)"/>
</g>
</svg>
