<?xml version="1.0" encoding="UTF-8" standalone="no"?>
<svg
   xmlns:dc="http://purl.org/dc/elements/1.1/"
   xmlns:cc="http://creativecommons.org/ns#"
   xmlns:rdf="http://www.w3.org/1999/02/22-rdf-syntax-ns#"
   xmlns:svg="http://www.w3.org/2000/svg"
   xmlns="http://www.w3.org/2000/svg"
   xmlns:sodipodi="http://sodipodi.sourceforge.net/DTD/sodipodi-0.dtd"
   xmlns:inkscape="http://www.inkscape.org/namespaces/inkscape"
   inkscape:version="1.0beta2 (unknown)"
   sodipodi:docname="app-icon.svg"
   id="svg6"
   version="1.1"
   viewBox="0 0 32 32">
  <metadata
     id="metadata10">
    <rdf:RDF>
      <cc:Work
         rdf:about="">
        <dc:format>image/svg+xml</dc:format>
        <dc:type
           rdf:resource="http://purl.org/dc/dcmitype/StillImage" />
        <dc:title />
      </cc:Work>
    </rdf:RDF>
  </metadata>
  <sodipodi:namedview
     inkscape:document-rotation="0"
     inkscape:current-layer="text845"
     inkscape:window-maximized="1"
     inkscape:window-y="0"
     inkscape:window-x="0"
     inkscape:cy="121.47918"
     inkscape:cx="80.314405"
     inkscape:zoom="1.3037281"
     inkscape:snap-smooth-nodes="true"
     inkscape:snap-nodes="true"
     inkscape:snap-bbox="true"
     inkscape:snap-global="true"
     showguides="true"
     showgrid="true"
     id="namedview8"
     inkscape:window-height="1043"
     inkscape:window-width="1920"
     inkscape:pageshadow="2"
     inkscape:pageopacity="0"
     guidetolerance="10"
     gridtolerance="10"
     objecttolerance="10"
     borderopacity="1"
     bordercolor="#666666"
     pagecolor="#ffffff">
    <inkscape:grid
       id="grid3740"
       type="xygrid" />
  </sodipodi:namedview>
  <defs
     id="defs3051">
    <style
       id="current-color-scheme"
       type="text/css">
      .ColorScheme-Text {
        color:#232629;
      }
      .ColorScheme-NegativeText {
        color:#da4453;
      }
      </style>
  </defs>
  <g
     id="text4590"
     style="font-style:normal;font-weight:normal;font-size:8px;line-height:1.25;font-family:sans-serif;letter-spacing:0px;word-spacing:0px;fill:#000000;fill-opacity:1;stroke:none"
     aria-label="G" />
  <g
     inkscape:label="Layer 1"
     id="layer1"
     inkscape:groupmode="layer">
    <rect
       y="3"
       x="1"
       height="26"
       width="30"
       id="rect856"
       style="font-style:normal;font-variant:normal;font-weight:normal;font-stretch:normal;font-size:16px;line-height:1.25;font-family:'TeX Gyre Adventor';-inkscape-font-specification:'TeX Gyre Adventor';letter-spacing:0px;word-spacing:0px;fill:#00c000;fill-opacity:0.98238;stroke:none;stroke-width:1.07736" />
  </g>
  <g
     inkscape:label="Layer 2"
     id="layer2"
     inkscape:groupmode="layer">
    <g
       style="font-style:normal;font-variant:normal;font-weight:normal;font-stretch:normal;font-size:16px;line-height:1.25;font-family:'TeX Gyre Adventor';-inkscape-font-specification:'TeX Gyre Adventor';letter-spacing:0px;word-spacing:0px;fill:#000000;fill-opacity:1;stroke:none"
       id="text845"
       aria-label="Gapr">
      <path
         inkscape:connector-curvature="0"
         id="path847"
         d="m 7.016,18.216 v 1.072 h 6.608 c -0.176,0.768 -0.576,1.424 -1.248,2.096 -0.912,0.912 -2.16,1.408 -3.536,1.408 -2.8959988,0 -5.1839988,-2.208 -5.1839988,-5.024 0,-2.848 2.24,-5.04 5.1679988,-5.04 1.824,0 3.36,0.832 4.176,2.272 h 1.328 c -0.784,-2.016 -3.024,-3.36 -5.6,-3.36 -3.5199988,0 -6.2719988,2.672 -6.2719988,6.096 0,3.472 2.8,6.144 6.4319988,6.144 1.872,0 3.472,-0.688 4.608,-2 0.96,-1.104 1.472,-2.336 1.552,-3.664 z" />
      <path
         inkscape:connector-curvature="0"
         id="path849"
         d="M 22.184,4.248 H 21 V 5.8 C 20.12,4.584 19.064,4.04 17.544,4.04 c -2.624,0 -4.608,1.984 -4.608,4.608 0,2.624 2,4.56 4.704,4.56 1.488,0 2.416,-0.48 3.36,-1.744 V 13 h 1.184 z m -4.608,0.88 c 1.936,0 3.424,1.504 3.424,3.456 0,2 -1.472,3.536 -3.36,3.536 -1.984,0 -3.504,-1.552 -3.504,-3.552 0,-1.904 1.536,-3.44 3.44,-3.44 z" />
      <path
         inkscape:connector-curvature="0"
         id="path851"
         d="M 15.816,15 V 26.824 H 17 v -4.576 c 0.768,1.12 1.952,1.712 3.408,1.712 2.624,0 4.64,-2 4.64,-4.56 0,-2.624 -2,-4.608 -4.608,-4.608 -1.504,0 -2.688,0.592 -3.44,1.712 V 15 Z m 4.576,0.88 c 1.984,0 3.456,1.504 3.456,3.52 0,1.968 -1.488,3.472 -3.44,3.472 -2,0 -3.488,-1.504 -3.488,-3.536 0,-1.936 1.52,-3.456 3.472,-3.456 z" />
      <path
         inkscape:connector-curvature="0"
         id="path853"
         d="M 25.816,23.752 H 27 v -5.104 c -0.016,-1.584 0.864,-2.56 2.48,-2.688 V 14.792 C 28.216,14.856 27.464,15.288 27,16.248 V 15 h -1.184 z" />
    </g>
  </g>
</svg>
