<?xml version="1.0" encoding="UTF-8" standalone="no"?>
<svg
   xmlns:dc="http://purl.org/dc/elements/1.1/"
   xmlns:cc="http://creativecommons.org/ns#"
   xmlns:rdf="http://www.w3.org/1999/02/22-rdf-syntax-ns#"
   xmlns:svg="http://www.w3.org/2000/svg"
   xmlns="http://www.w3.org/2000/svg"
   xmlns:sodipodi="http://sodipodi.sourceforge.net/DTD/sodipodi-0.dtd"
   xmlns:inkscape="http://www.inkscape.org/namespaces/inkscape"
   inkscape:version="1.0beta2 (unknown)"
   sodipodi:docname="app-icon.svg"
   id="svg6"
   version="1.1"
   viewBox="0 0 64 64">
  <metadata
     id="metadata10">
    <rdf:RDF>
      <cc:Work
         rdf:about="">
        <dc:format>image/svg+xml</dc:format>
        <dc:type
           rdf:resource="http://purl.org/dc/dcmitype/StillImage" />
        <dc:title />
      </cc:Work>
    </rdf:RDF>
  </metadata>
  <sodipodi:namedview
     inkscape:document-rotation="0"
     inkscape:current-layer="layer2"
     inkscape:window-maximized="1"
     inkscape:window-y="0"
     inkscape:window-x="0"
     inkscape:cy="155.08001"
     inkscape:cx="-135.53759"
     inkscape:zoom="1.3037281"
     inkscape:snap-smooth-nodes="true"
     inkscape:snap-nodes="true"
     inkscape:snap-bbox="true"
     inkscape:snap-global="true"
     showguides="true"
     showgrid="true"
     id="namedview8"
     inkscape:window-height="1043"
     inkscape:window-width="1920"
     inkscape:pageshadow="2"
     inkscape:pageopacity="0"
     guidetolerance="10"
     gridtolerance="10"
     objecttolerance="10"
     borderopacity="1"
     bordercolor="#666666"
     pagecolor="#ffffff">
    <inkscape:grid
       id="grid3740"
       type="xygrid" />
  </sodipodi:namedview>
  <defs
     id="defs3051">
    <rect
       id="rect1427"
       height="53.872393"
       width="125.94856"
       y="20"
       x="-20" />
    <style
       id="current-color-scheme"
       type="text/css">
      .ColorScheme-Text {
        color:#232629;
      }
      .ColorScheme-NegativeText {
        color:#da4453;
      }
      </style>
  </defs>
  <g
     id="text4590"
     style="font-style:normal;font-weight:normal;font-size:8px;line-height:1.25;font-family:sans-serif;letter-spacing:0px;word-spacing:0px;fill:#000000;fill-opacity:1;stroke:none"
     aria-label="G" />
  <g
     id="text4598-2"
     style="font-style:normal;font-weight:normal;font-size:8px;line-height:1.25;font-family:sans-serif;letter-spacing:0px;word-spacing:0px;fill:#00ff00;fill-opacity:1;stroke:none"
     aria-label="p"
     transform="matrix(2,0,0,2,10.440678,-14)" />
  <g
     inkscape:label="Layer 1"
     id="layer1"
     inkscape:groupmode="layer">
    <rect
       y="8"
       x="3"
       height="48"
       width="58"
       id="rect1444"
       style="fill:#00c000;fill-opacity:0.98238;stroke-width:1.0177" />
  </g>
  <g
     inkscape:label="Layer 2"
     id="layer2"
     inkscape:groupmode="layer">
    <text
       style="font-style:normal;font-variant:normal;font-weight:normal;font-stretch:normal;font-size:40px;line-height:1.25;font-family:'TeX Gyre Adventor';-inkscape-font-specification:'TeX Gyre Adventor';letter-spacing:0px;word-spacing:0px;white-space:pre;shape-inside:url(#rect1427);fill:#000000;fill-opacity:1;stroke:none;"
       id="text1425"
       xml:space="preserve" />
    <g
       transform="translate(0.704,0.512)"
       style="font-style:normal;font-variant:normal;font-weight:normal;font-stretch:normal;font-size:32px;line-height:1.25;font-family:'TeX Gyre Adventor';-inkscape-font-specification:'TeX Gyre Adventor';letter-spacing:0px;word-spacing:0px;fill:#000000;fill-opacity:1;stroke:none"
       id="text1433"
       aria-label="Gapr">
      <path
         inkscape:connector-curvature="0"
         id="path1435"
         d="m 13.328,35.92 v 2.144 h 13.216 c -0.352,1.536 -1.152,2.848 -2.496,4.192 -1.824,1.824 -4.32,2.816 -7.072,2.816 -5.792,0 -10.368,-4.416 -10.368,-10.048 0,-5.696 4.48,-10.08 10.336,-10.08 3.648,0 6.72,1.664 8.352,4.544 h 2.656 c -1.568,-4.032 -6.048,-6.72 -11.2,-6.72 -7.04,0 -12.544,5.344 -12.544,12.192 0,6.944 5.6,12.288 12.864,12.288 3.744,0 6.944,-1.376 9.216,-4 1.92,-2.208 2.944,-4.672 3.104,-7.328 z" />
      <path
         inkscape:connector-curvature="0"
         id="path1437"
         d="m 43.664,9.984 h -2.368 v 3.104 c -1.76,-2.432 -3.872,-3.52 -6.912,-3.52 -5.248,0 -9.216,3.968 -9.216,9.216 0,5.248 4,9.12 9.408,9.12 2.976,0 4.832,-0.96 6.72,-3.488 v 3.072 h 2.368 z m -9.216,1.76 c 3.872,0 6.848,3.008 6.848,6.912 0,4 -2.944,7.072 -6.72,7.072 -3.968,0 -7.008,-3.104 -7.008,-7.104 0,-3.808 3.072,-6.88 6.88,-6.88 z" />
      <path
         inkscape:connector-curvature="0"
         id="path1439"
         d="m 30.928,29.488 v 23.648 h 2.368 v -9.152 c 1.536,2.24 3.904,3.424 6.816,3.424 5.248,0 9.28,-4 9.28,-9.12 0,-5.248 -4,-9.216 -9.216,-9.216 -3.008,0 -5.376,1.184 -6.88,3.424 v -3.008 z m 9.152,1.76 c 3.968,0 6.912,3.008 6.912,7.04 0,3.936 -2.976,6.944 -6.88,6.944 -4,0 -6.976,-3.008 -6.976,-7.072 0,-3.872 3.04,-6.912 6.944,-6.912 z" />
      <path
         inkscape:connector-curvature="0"
         id="path1441"
         d="m 50.928,46.992 h 2.368 V 36.784 c -0.032,-3.168 1.728,-5.12 4.96,-5.376 v -2.336 c -2.528,0.128 -4.032,0.992 -4.96,2.912 v -2.496 h -2.368 z" />
    </g>
  </g>
</svg>
