<?xml version="1.0" encoding="UTF-8" standalone="no"?>
<svg
   xmlns:dc="http://purl.org/dc/elements/1.1/"
   xmlns:cc="http://creativecommons.org/ns#"
   xmlns:rdf="http://www.w3.org/1999/02/22-rdf-syntax-ns#"
   xmlns:svg="http://www.w3.org/2000/svg"
   xmlns="http://www.w3.org/2000/svg"
   xmlns:sodipodi="http://sodipodi.sourceforge.net/DTD/sodipodi-0.dtd"
   xmlns:inkscape="http://www.inkscape.org/namespaces/inkscape"
   inkscape:version="1.0beta2 (unknown)"
   sodipodi:docname="app-icon.svg"
   id="svg6"
   version="1.1"
   viewBox="0 0 16 16">
  <metadata
     id="metadata10">
    <rdf:RDF>
      <cc:Work
         rdf:about="">
        <dc:format>image/svg+xml</dc:format>
        <dc:type
           rdf:resource="http://purl.org/dc/dcmitype/StillImage" />
        <dc:title />
      </cc:Work>
    </rdf:RDF>
  </metadata>
  <sodipodi:namedview
     inkscape:document-rotation="0"
     inkscape:current-layer="text4598"
     inkscape:window-maximized="1"
     inkscape:window-y="0"
     inkscape:window-x="0"
     inkscape:cy="134.84614"
     inkscape:cx="79.401475"
     inkscape:zoom="0.921875"
     inkscape:snap-smooth-nodes="true"
     inkscape:snap-nodes="true"
     inkscape:snap-bbox="true"
     inkscape:snap-global="true"
     showguides="true"
     showgrid="true"
     id="namedview8"
     inkscape:window-height="1043"
     inkscape:window-width="1920"
     inkscape:pageshadow="2"
     inkscape:pageopacity="0"
     guidetolerance="10"
     gridtolerance="10"
     objecttolerance="10"
     borderopacity="1"
     bordercolor="#666666"
     pagecolor="#ffffff">
    <inkscape:grid
       id="grid3740"
       type="xygrid" />
  </sodipodi:namedview>
  <defs
     id="defs3051">
    <style
       id="current-color-scheme"
       type="text/css">
      .ColorScheme-Text {
        color:#232629;
      }
      .ColorScheme-NegativeText {
        color:#da4453;
      }
      </style>
  </defs>
  <g
     id="text4590"
     style="font-style:normal;font-weight:normal;font-size:8px;line-height:1.25;font-family:sans-serif;letter-spacing:0px;word-spacing:0px;fill:#000000;fill-opacity:1;stroke:none"
     aria-label="G" />
  <g
     id="text4598-2"
     style="font-style:normal;font-weight:normal;font-size:8px;line-height:1.25;font-family:sans-serif;letter-spacing:0px;word-spacing:0px;fill:#00ff00;fill-opacity:1;stroke:none"
     aria-label="p"
     transform="translate(5.220339,-7)" />
  <g
     inkscape:label="Layer 1"
     id="layer1"
     inkscape:groupmode="layer">
    <rect
       y="1"
       x="1"
       height="14"
       width="14"
       id="rect856"
       style="fill:#00c000;fill-opacity:0.98238" />
  </g>
  <g
     inkscape:label="Layer 2"
     id="layer2"
     inkscape:groupmode="layer">
    <g
       id="text4594"
       style="font-style:normal;font-weight:normal;font-size:8px;line-height:1.25;font-family:sans-serif;letter-spacing:0px;word-spacing:0px;fill:#000000;fill-opacity:1;stroke:none"
       aria-label="a">
      <path
         sodipodi:nodetypes="cccccccccccc"
         inkscape:connector-curvature="0"
         id="path4604"
         style="font-size:10.6667px"
         d="M 8,3 C 7.5166106,3 7,3.5729167 7,4 7,4.6798107 7.5837821,5 8,5 H 9 V 3 Z M 10,2 V 6 H 8 C 7,6 6,5 6,4 6,3 7,2 8,2 c 2.003239,0.052809 2,0 2,0 z" />
    </g>
    <path
       sodipodi:nodetypes="cccccccccccccsccc"
       inkscape:connector-curvature="0"
       id="path4610"
       style="font-style:normal;font-weight:normal;font-size:10.66666698px;line-height:1.25;font-family:sans-serif;letter-spacing:0px;word-spacing:0px;fill:#000000;fill-opacity:1;stroke:none"
       d="M 4,11 V 9 H 3 V 8 h 2 v 4 C 4,12 3.7889418,11.926031 3,12 2,12 1,11 1,10 1,8.4971938 1,7.2673611 1,6 1,5 2,4 3,4 3.710489,4 5,4 5,4 V 5 C 5,5 4,5 3,5 2.4763661,5 2,5.4872354 2,6 c 0,1.0486111 0,3 0,4 0,0.519265 0.5280055,1 1,1 0.5240757,0 0.6180703,0 1,0 z" />
    <g
       transform="translate(0,-1)"
       id="text4598"
       style="font-style:normal;font-weight:normal;font-size:8px;line-height:1.25;font-family:sans-serif;letter-spacing:0px;word-spacing:0px;fill:#000000;fill-opacity:1;stroke:none"
       aria-label="p">
      <path
         sodipodi:nodetypes="cccccscccccscccc"
         inkscape:connector-curvature="0"
         id="path4607"
         style="font-size:10.6667px"
         d="m 7,13 c 0.022324,0.936319 0,3 0,3 H 6 V 8 h 2 c 1,0 2,1 2,2 v 1 c 0,1 -1,2 -2,2 z M 9,11 V 10 C 9,9.4294342 8.5069445,9 8,9 H 7 v 3 h 1 c 0.6570346,0 1,-0.570298 1,-1 z" />
    </g>
    <g
       transform="translate(-0.561906,0.0052435)"
       id="text4602"
       style="font-style:normal;font-weight:normal;font-size:8px;line-height:1.25;font-family:sans-serif;letter-spacing:0px;word-spacing:0px;fill:#000000;fill-opacity:1;stroke:none"
       aria-label="r">
      <path
         sodipodi:nodetypes="cczscccccccc"
         inkscape:connector-curvature="0"
         id="path4613"
         style="font-size:10.66666698px"
         d="m 15.561906,6.9947565 c 0,0 -0.751679,0 -1,0 -0.446335,0 -0.636016,0.3262055 -1,0.652439 -0.363984,0.3262336 -1,1.1073089 -1,1.347561 v 2.9999995 h -1 V 5.9947565 h 1 V 7.641939 c 0.47242,-0.6471825 1,-1.6471825 2,-1.6471825 0.277534,0 1,0 1,0 z" />
    </g>
  </g>
</svg>
